# 3ds Max Wavefront OBJ Exporter v0.97b - (c)2007 guruware
# File Created: 29.01.2020 08:25:22

#
# object PiattoFuoco002
#

v  1.5695 1.2508 2.2355
v  1.6197 1.1810 2.2356
v  1.6704 1.1810 2.3235
v  1.6327 1.2508 2.3452
v  1.7293 1.1050 2.2358
v  1.7526 1.1050 2.2762
v  1.6480 1.2447 2.3364
v  1.5899 1.2447 2.2356
v  1.6592 1.2276 2.3299
v  1.6048 1.2276 2.2355
v  1.7603 1.2340 2.3436
v  1.7759 1.2290 2.3166
v  1.7527 1.2310 2.2760
v  1.7292 1.2290 2.2897
v  1.6959 1.2508 2.4549
v  1.7211 1.1810 2.4115
v  1.8225 1.1810 2.4115
v  1.8225 1.2508 2.4550
v  1.7760 1.1050 2.3166
v  1.8227 1.1050 2.3166
v  1.8225 1.2447 2.4373
v  1.7061 1.2447 2.4372
v  1.8225 1.2276 2.4244
v  1.7135 1.2276 2.4243
v  1.8848 1.2342 2.3437
v  1.8693 1.2340 2.3167
v  1.8227 1.2290 2.3169
v  1.8226 1.2290 2.3435
v  1.9490 1.2508 2.4551
v  1.9240 1.1810 2.4116
v  1.9748 1.1810 2.3237
v  2.0124 1.2508 2.3455
v  1.8693 1.1050 2.3166
v  1.8927 1.1050 2.2762
v  1.9971 1.2447 2.3367
v  1.9388 1.2447 2.4374
v  1.9859 1.2276 2.3302
v  1.9314 1.2276 2.4245
v  1.9471 1.2293 2.2359
v  1.9161 1.2340 2.2358
v  1.8928 1.2310 2.2764
v  1.9158 1.2290 2.2898
v  2.0758 1.2508 2.2360
v  2.0256 1.1810 2.2359
v  1.9749 1.1810 2.1480
v  2.0126 1.2508 2.1263
v  1.9160 1.1050 2.2357
v  1.8927 1.1050 2.1953
v  1.9973 1.2447 2.1351
v  2.0554 1.2447 2.2360
v  1.9861 1.2276 2.1416
v  2.0405 1.2276 2.2360
v  1.8850 1.2293 2.1280
v  1.8694 1.2341 2.1549
v  1.8927 1.2294 2.1954
v  1.9160 1.2290 2.1820
v  1.9494 1.2508 2.0166
v  1.9242 1.1810 2.0600
v  1.8228 1.1810 2.0600
v  1.8228 1.2508 2.0165
v  1.8693 1.1050 2.1549
v  1.8226 1.1050 2.1549
v  1.8228 1.2447 2.0342
v  1.9392 1.2447 2.0343
v  1.8228 1.2276 2.0471
v  1.9318 1.2276 2.0472
v  1.7605 1.2290 2.1279
v  1.7761 1.2291 2.1549
v  1.8228 1.2290 2.1550
v  1.8227 1.2314 2.1278
v  1.6962 1.2508 2.0164
v  1.7213 1.1810 2.0599
v  1.6705 1.1810 2.1478
v  1.6329 1.2508 2.1260
v  1.7760 1.1050 2.1549
v  1.7526 1.1050 2.1953
v  1.6482 1.2447 2.1348
v  1.7065 1.2447 2.0341
v  1.6594 1.2276 2.1413
v  1.7139 1.2276 2.0470
v  1.6982 1.2290 2.2356
v  1.7293 1.2290 2.2357
v  1.7527 1.2294 2.1953
v  1.7294 1.2314 2.1818
v  1.7915 1.2290 2.2896
v  1.8071 1.2292 2.2627
v  1.7993 1.2290 2.2492
v  1.7759 1.2328 2.2627
v  1.6359 1.2289 2.2356
v  1.6824 1.2323 2.3166
v  1.6670 1.2308 2.2356
v  1.7058 1.2307 2.3031
v  1.8537 1.2296 2.2897
v  1.8382 1.2319 2.2627
v  1.8225 1.2324 2.2627
v  1.8226 1.2305 2.2896
v  1.7291 1.2284 2.3974
v  1.8225 1.2290 2.3975
v  1.7447 1.2290 2.3704
v  1.8225 1.2290 2.3704
v  1.8849 1.2290 2.2358
v  1.8538 1.2310 2.2358
v  1.8460 1.2315 2.2493
v  1.8691 1.2336 2.2626
v  1.9159 1.2289 2.3976
v  1.9628 1.2323 2.3168
v  1.9003 1.2308 2.3706
v  1.9393 1.2307 2.3033
v  1.8538 1.2307 2.1819
v  1.8382 1.2312 2.2088
v  1.8460 1.2318 2.2223
v  1.8693 1.2300 2.2089
v  2.0094 1.2303 2.2359
v  1.9628 1.2290 2.1550
v  1.9783 1.2308 2.2359
v  1.9394 1.2290 2.1685
v  1.8071 1.2292 2.2088
v  1.8227 1.2308 2.2358
v  1.8226 1.2327 2.2088
v  1.7916 1.2307 2.1818
v  1.8227 1.2305 2.1818
v  1.9162 1.2289 2.0741
v  1.8228 1.2323 2.0739
v  1.9006 1.2290 2.1011
v  1.8228 1.2330 2.1010
v  1.7993 1.2324 2.2222
v  1.7604 1.2290 2.2357
v  1.7916 1.2300 2.2357
v  1.7760 1.2312 2.2088
v  1.7294 1.2287 2.0739
v  1.6827 1.2290 2.1548
v  1.7450 1.2290 2.1009
v  1.7060 1.2325 2.1682
v  1.8226 1.1050 2.2358
# 134 vertices

vn -0.8821 0.4710 -0.0009
vn -0.7272 -0.6864 -0.0003
vn -0.6478 -0.6640 0.3735
vn -0.6776 0.6232 0.3905
vn -0.3829 -0.9238 0.0003
vn -0.2868 -0.9436 0.1656
vn 0.5099 0.8085 -0.2938
vn 0.4706 0.8824 0.0005
vn 0.3181 0.9302 -0.1832
vn 0.5035 0.8640 0.0006
vn -0.0263 0.9986 0.0455
vn 0.0743 0.9942 -0.0779
vn -0.0604 0.9976 0.0346
vn -0.0239 0.9992 -0.0321
vn -0.4419 0.4710 0.7635
vn -0.3639 -0.6864 0.6296
vn -0.0004 -0.6640 0.7477
vn -0.0006 0.6231 0.7821
vn -0.1912 -0.9238 0.3317
vn 0.0001 -0.9436 0.3312
vn 0.0005 0.8085 -0.5885
vn 0.2357 0.8824 -0.4073
vn 0.0004 0.9059 -0.4236
vn 0.2545 0.8614 -0.4396
vn 0.0353 0.9975 0.0609
vn -0.0464 0.9984 -0.0319
vn -0.0533 0.9982 0.0267
vn -0.0020 1.0000 -0.0001
vn 0.4402 0.4710 0.7644
vn 0.3633 -0.6864 0.6299
vn 0.6473 -0.6640 0.3742
vn 0.6770 0.6232 0.3916
vn 0.1917 -0.9238 0.3314
vn 0.2868 -0.9436 0.1655
vn -0.5094 0.8085 -0.2947
vn -0.2349 0.8824 -0.4078
vn -0.3180 0.9301 -0.1840
vn -0.2511 0.8641 -0.4362
vn 0.0183 0.9998 0.0000
vn 0.0464 0.9987 -0.0190
vn 0.0738 0.9964 0.0427
vn 0.0241 0.9992 -0.0318
vn 0.8821 0.4710 0.0009
vn 0.7272 -0.6864 0.0003
vn 0.6478 -0.6640 -0.3735
vn 0.6776 0.6232 -0.3905
vn 0.3829 -0.9238 -0.0003
vn 0.2868 -0.9436 -0.1656
vn -0.5099 0.8085 0.2938
vn -0.4706 0.8824 -0.0005
vn -0.3671 0.9058 0.2115
vn -0.4897 0.8719 -0.0006
vn 0.0479 0.9981 -0.0385
vn 0.0286 0.9978 -0.0596
vn 0.0175 0.9998 -0.0085
vn 0.0066 1.0000 -0.0038
vn 0.4419 0.4710 -0.7635
vn 0.3639 -0.6864 -0.6296
vn 0.0004 -0.6640 -0.7477
vn 0.0006 0.6232 -0.7821
vn 0.1912 -0.9238 -0.3317
vn -0.0001 -0.9436 -0.3312
vn -0.0005 0.8085 0.5884
vn -0.2357 0.8824 0.4073
vn -0.0003 0.9301 0.3672
vn -0.2523 0.8639 0.4358
vn -0.0007 1.0000 -0.0014
vn -0.0048 0.9998 -0.0193
vn -0.0534 0.9984 0.0165
vn -0.0021 0.9973 0.0733
vn -0.4402 0.4710 -0.7644
vn -0.3633 -0.6864 -0.6299
vn -0.6473 -0.6640 -0.3742
vn -0.6770 0.6231 -0.3916
vn -0.1917 -0.9238 -0.3314
vn -0.2868 -0.9436 -0.1655
vn 0.5093 0.8085 0.2947
vn 0.2349 0.8824 0.4078
vn 0.3669 0.9057 0.2123
vn 0.2523 0.8627 0.4383
vn 0.0378 0.9990 0.0221
vn 0.0003 0.9998 -0.0197
vn 0.0020 1.0000 0.0025
vn 0.0486 0.9984 0.0281
vn 0.0354 0.9991 0.0232
vn -0.1189 0.9919 -0.0439
vn 0.0433 0.9991 0.0029
vn 0.0320 0.9993 -0.0176
vn -0.0476 0.9986 -0.0208
vn -0.0491 0.9983 0.0311
vn -0.0218 0.9997 0.0127
vn 0.0594 0.9980 -0.0209
vn -0.0828 0.9961 -0.0291
vn 0.0458 0.9988 0.0157
vn -0.0866 0.9962 0.0057
vn -0.0108 0.9980 0.0631
vn 0.0060 0.9995 0.0307
vn -0.0026 0.9997 0.0258
vn -0.0212 0.9978 0.0628
vn -0.0115 0.9999 -0.0002
vn -0.0832 0.9944 -0.0646
vn 0.0403 0.9991 0.0102
vn -0.0303 0.9981 -0.0537
vn 0.0133 0.9999 -0.0048
vn 0.0061 0.9986 0.0517
vn 0.0465 0.9983 0.0355
vn 0.0271 0.9970 0.0730
vn -0.0531 0.9981 -0.0309
vn -0.0265 0.9978 0.0613
vn 0.0321 0.9994 0.0120
vn 0.0161 0.9999 0.0004
vn 0.0528 0.9986 0.0020
vn 0.0626 0.9978 -0.0204
vn 0.0184 0.9996 -0.0194
vn -0.0061 0.9999 -0.0130
vn -0.0060 0.9999 -0.0096
vn -0.0030 0.9998 0.0189
vn -0.0284 0.9995 0.0100
vn -0.0637 0.9980 -0.0058
vn 0.0029 0.9997 -0.0232
vn -0.0001 0.9976 -0.0694
vn 0.0321 0.9994 -0.0143
vn -0.0011 0.9951 -0.0985
vn 0.0283 0.9996 0.0099
vn -0.0001 0.9998 0.0181
vn 0.0187 0.9997 -0.0165
vn -0.0109 0.9995 -0.0283
vn -0.0290 0.9916 0.1258
vn -0.0614 0.9981 -0.0040
vn -0.0310 0.9994 -0.0123
vn -0.0771 0.9960 -0.0460
vn -0.0069 1.0000 -0.0046
vn -0.0324 0.9990 -0.0320
vn 0.0000 -1.0000 -0.0000
# 134 vertex normals

vt 0.0000 1.0000 0.0000
vt 0.0000 0.0000 0.0000
vt 0.5000 0.0000 0.0000
vt 0.5000 1.0000 0.0000
vt 1.0000 1.0000 1.0000
vt 0.7857 1.0000 0.0000
vt 0.7143 1.0000 0.0000
vt 0.6429 1.0000 0.0000
vt 0.5714 1.0000 0.0000
vt 0.0714 1.0000 0.0000
vt 0.1429 1.0000 0.0000
vt 0.2143 1.0000 0.0000
vt 0.4998 1.0000 0.0000
vt 0.5001 1.0000 0.0000
vt 0.4286 1.0000 0.0000
vt 1.0000 0.0000 0.0000
vt 1.0000 1.0000 0.0000
vt 0.2857 1.0000 0.0000
vt 0.3571 1.0000 0.0000
vt 0.9286 1.0000 0.0000
vt 0.8571 1.0000 0.0000
vt 0.4999 1.0000 0.0000
# 22 texture coords

o PiattoFuoco002
g PiattoFuoco002
s 1
f 1/1/1 2/2/2 3/3/3 4/4/4 
f 5/5/5 6/5/6 3/3/3 2/2/2 
s 2
f 1/1/1 4/4/4 7/4/7 8/1/8 
s 1
f 8/1/8 7/4/7 9/4/9 10/1/10 
s 2
f 11/6/11 12/7/12 13/4/13 14/4/14 
s 1
f 15/1/15 16/2/16 17/3/17 18/4/18 
f 19/5/19 20/5/20 17/3/17 16/2/16 
s 2
f 15/1/15 18/4/18 21/4/21 22/1/22 
s 1
f 22/1/22 21/4/21 23/4/23 24/1/24 
s 2
f 25/6/25 26/7/26 27/4/27 28/4/28 
s 1
f 29/1/29 30/2/30 31/3/31 32/4/32 
f 33/5/33 34/5/34 31/3/31 30/2/30 
s 2
f 29/1/29 32/4/32 35/4/35 36/1/36 
s 1
f 36/1/36 35/4/35 37/4/37 38/1/38 
s 2
f 39/6/39 40/7/40 41/4/41 42/4/42 
s 1
f 43/1/43 44/2/44 45/3/45 46/4/46 
f 47/5/47 48/5/48 45/3/45 44/2/44 
s 2
f 43/1/43 46/4/46 49/4/49 50/1/50 
s 1
f 50/1/50 49/4/49 51/4/51 52/1/52 
s 2
f 53/6/53 54/7/54 55/4/55 56/4/56 
s 1
f 57/1/57 58/2/58 59/3/59 60/4/60 
f 61/5/61 62/5/62 59/3/59 58/2/58 
s 2
f 57/1/57 60/4/60 63/4/63 64/1/64 
s 1
f 64/1/64 63/4/63 65/4/65 66/1/66 
s 2
f 67/6/67 68/7/68 69/4/69 70/4/70 
s 1
f 71/1/71 72/2/72 73/3/73 74/4/74 
f 75/5/75 76/5/76 73/3/73 72/2/72 
s 2
f 71/1/71 74/4/74 77/4/77 78/1/78 
s 1
f 78/1/78 77/4/77 79/4/79 80/1/80 
s 2
f 81/6/81 82/7/82 83/4/83 84/4/84 
f 85/8/85 86/9/86 87/4/87 88/4/88 
f 12/7/12 85/8/85 88/4/88 13/4/13 
f 89/10/89 10/1/10 9/4/9 90/4/90 
f 91/11/91 89/10/89 90/4/90 92/4/92 
f 81/12/81 91/11/91 92/4/92 14/4/14 
f 93/8/93 94/9/94 95/4/95 96/4/96 
f 26/7/26 93/8/93 96/4/96 27/4/27 
f 97/10/97 24/1/24 23/4/23 98/4/98 
f 99/11/99 97/10/97 98/4/98 100/4/100 
f 11/12/11 99/11/99 100/4/100 28/4/28 
f 101/8/101 102/9/102 103/4/103 104/4/104 
f 40/7/40 101/8/101 104/4/104 41/4/41 
f 105/10/105 38/1/38 37/4/37 106/4/106 
f 107/11/107 105/10/105 106/4/106 108/4/108 
f 25/12/25 107/11/107 108/4/108 42/4/42 
f 109/8/109 110/9/110 111/4/111 112/4/112 
f 54/7/54 109/8/109 112/4/112 55/4/55 
f 113/10/113 52/1/52 51/4/51 114/4/114 
f 115/11/115 113/10/113 114/4/114 116/4/116 
f 39/12/39 115/11/115 116/4/116 56/4/56 
f 117/9/117 118/13/118 119/4/119 
f 120/8/120 117/9/117 119/4/119 121/4/121 
f 68/7/68 120/8/120 121/4/121 69/4/69 
f 122/10/122 66/1/66 65/4/65 123/4/123 
f 124/11/124 122/10/122 123/4/123 125/4/125 
f 53/12/53 124/11/124 125/4/125 70/4/70 
f 118/14/118 117/15/117 126/4/126 
f 127/8/127 128/9/128 126/4/126 129/4/129 
f 82/7/82 127/8/127 129/4/129 83/4/83 
f 130/10/130 80/1/80 79/4/79 131/4/131 
f 132/11/132 130/10/130 131/4/131 133/4/133 
f 67/12/67 132/11/132 133/4/133 84/4/84 
s 1
f 31/3/31 44/16/44 43/17/43 32/4/32 
f 34/5/34 47/5/47 44/16/44 31/3/31 
s 2
f 32/4/32 43/17/43 50/17/50 35/4/35 
s 1
f 35/4/35 50/17/50 52/17/52 37/4/37 
s 2
f 41/4/41 26/18/26 25/12/25 42/4/42 
f 103/4/103 94/15/94 93/19/93 104/4/104 
f 104/4/104 93/19/93 26/18/26 41/4/41 
f 37/4/37 52/17/52 113/20/113 106/4/106 
f 106/4/106 113/20/113 115/21/115 108/4/108 
f 108/4/108 115/21/115 39/6/39 42/4/42 
s 1
f 17/3/17 30/16/30 29/17/29 18/4/18 
f 20/5/20 33/5/33 30/16/30 17/3/17 
s 2
f 18/4/18 29/17/29 36/17/36 21/4/21 
s 1
f 21/4/21 36/17/36 38/17/38 23/4/23 
s 2
f 27/4/27 12/18/12 11/12/11 28/4/28 
f 95/4/95 86/15/86 85/19/85 96/4/96 
f 96/4/96 85/19/85 12/18/12 27/4/27 
f 23/4/23 38/17/38 105/20/105 98/4/98 
f 98/4/98 105/20/105 107/21/107 100/4/100 
f 100/4/100 107/21/107 25/6/25 28/4/28 
s 1
f 3/3/3 16/16/16 15/17/15 4/4/4 
f 6/5/6 19/5/19 16/16/16 3/3/3 
s 2
f 4/4/4 15/17/15 22/17/22 7/4/7 
s 1
f 7/4/7 22/17/22 24/17/24 9/4/9 
s 2
f 13/4/13 82/18/82 81/12/81 14/4/14 
f 87/4/87 128/15/128 127/19/127 88/4/88 
f 88/4/88 127/19/127 82/18/82 13/4/13 
f 9/4/9 24/17/24 97/20/97 90/4/90 
f 90/4/90 97/20/97 99/21/99 92/4/92 
f 92/4/92 99/21/99 11/6/11 14/4/14 
s 1
f 45/3/45 58/16/58 57/17/57 46/4/46 
f 48/5/48 61/5/61 58/16/58 45/3/45 
s 2
f 46/4/46 57/17/57 64/17/64 49/4/49 
s 1
f 49/4/49 64/17/64 66/17/66 51/4/51 
s 2
f 55/4/55 40/18/40 39/12/39 56/4/56 
f 111/4/111 102/15/102 101/19/101 112/4/112 
f 112/4/112 101/19/101 40/18/40 55/4/55 
f 51/4/51 66/17/66 122/20/122 114/4/114 
f 114/4/114 122/20/122 124/21/124 116/4/116 
f 116/4/116 124/21/124 53/6/53 56/4/56 
s 1
f 59/3/59 72/16/72 71/17/71 60/4/60 
f 62/5/62 75/5/75 72/16/72 59/3/59 
s 2
f 60/4/60 71/17/71 78/17/78 63/4/63 
s 1
f 63/4/63 78/17/78 80/17/80 65/4/65 
s 2
f 69/4/69 54/18/54 53/12/53 70/4/70 
f 119/4/119 110/15/110 109/19/109 121/4/121 
f 121/4/121 109/19/109 54/18/54 69/4/69 
f 65/4/65 80/17/80 130/20/130 123/4/123 
f 123/4/123 130/20/130 132/21/132 125/4/125 
f 125/4/125 132/21/132 67/6/67 70/4/70 
s 1
f 73/3/73 2/16/2 1/17/1 74/4/74 
f 76/5/76 5/5/5 2/16/2 73/3/73 
s 2
f 74/4/74 1/17/1 8/17/8 77/4/77 
s 1
f 77/4/77 8/17/8 10/17/10 79/4/79 
s 2
f 83/4/83 68/18/68 67/12/67 84/4/84 
f 126/4/126 117/15/117 120/19/120 129/4/129 
f 129/4/129 120/19/120 68/18/68 83/4/83 
f 79/4/79 10/17/10 89/20/89 131/4/131 
f 131/4/131 89/20/89 91/21/91 133/4/133 
f 133/4/133 91/21/91 81/6/81 84/4/84 
f 126/4/126 128/9/128 118/14/118 
f 118/14/118 128/15/128 87/4/87 
f 87/4/87 86/9/86 118/14/118 
f 86/15/86 95/4/95 118/4/118 
f 118/22/118 103/4/103 102/9/102 
f 118/22/118 102/15/102 111/4/111 
f 95/4/95 94/9/94 118/4/118 
f 118/22/118 94/15/94 103/4/103 
f 118/22/118 111/4/111 110/9/110 
f 118/13/118 110/15/110 119/4/119 
f 6/5/6 5/5/5 134/5/134 
f 20/5/20 19/5/19 134/5/134 
f 34/5/34 33/5/33 134/5/134 
f 48/5/48 47/5/47 134/5/134 
f 62/5/62 61/5/61 134/5/134 
f 76/5/76 75/5/75 134/5/134 
f 47/5/47 34/5/34 134/5/134 
f 33/5/33 20/5/20 134/5/134 
f 19/5/19 6/5/6 134/5/134 
f 61/5/61 48/5/48 134/5/134 
f 75/5/75 62/5/62 134/5/134 
f 5/5/5 76/5/76 134/5/134 
# 120 polygons - 24 triangles

