# 3ds Max Wavefront OBJ Exporter v0.97b - (c)2007 guruware
# File Created: 21.02.2020 01:17:11

mtllib Pezzo_mattone2.mtl

#
# object LP_Pezzo_Mattone1
#

v  -0.1626 0.1917 -0.3571
v  -0.1814 0.3157 -0.3533
v  0.0271 0.3099 -0.3555
v  -0.0493 0.2048 -0.3535
v  -0.2953 0.1099 -0.3498
v  -0.3081 0.2479 -0.3467
v  -0.1345 0.3082 -0.1501
v  -0.2972 0.3196 -0.1658
v  -0.3052 0.1104 -0.1686
v  -0.1179 0.2078 -0.1530
v  -0.0144 0.2090 -0.1621
v  0.0642 0.3123 -0.1567
v  -0.3025 0.1071 -0.2657
v  -0.3026 0.3086 -0.2935
v  -0.1563 0.3217 -0.2397
v  -0.1304 0.1980 -0.2540
v  -0.0306 0.2039 -0.2756
v  0.0559 0.3140 -0.2354
# 18 vertices

vn 0.2108 -0.5680 -0.7956
vn -0.2154 0.7339 -0.6441
vn 0.6724 0.3740 -0.6388
vn 0.3534 -0.6732 -0.6496
vn -0.3465 -0.7419 -0.5741
vn -0.7825 0.1462 -0.6052
vn -0.0188 0.6162 0.7874
vn -0.5504 0.6418 0.5340
vn -0.4730 -0.6994 0.5358
vn 0.1418 -0.5999 0.7874
vn 0.4129 -0.7286 0.5464
vn 0.7767 0.3543 0.5207
vn -0.5159 -0.8562 -0.0266
vn -0.5886 0.6998 -0.4048
vn -0.0474 0.9965 0.0693
vn 0.2659 -0.9637 0.0239
vn 0.4858 -0.8698 -0.0865
vn 0.8880 0.4373 -0.1422
# 18 vertex normals

vt 1.0000 1.0000 1.0000
vt 1.0000 0.0000 0.0000
vt 1.0000 1.0000 0.0000
# 3 texture coords

o LP_Pezzo_Mattone1
g LP_Pezzo_Mattone1
usemtl wire_228184153
s off
f 1/1/1 2/1/2 3/1/3 4/1/4 
f 5/1/5 6/1/6 2/1/2 1/1/1 
f 7/1/7 8/1/8 9/1/9 10/1/10 
f 11/2/11 12/3/12 7/1/7 10/1/10 
f 13/1/13 14/1/14 6/1/6 5/1/5 
f 9/1/9 8/1/8 14/1/14 13/1/13 
f 14/1/14 8/1/8 7/1/7 15/1/15 
f 2/1/2 6/1/6 14/1/14 15/1/15 
f 16/1/16 10/1/10 9/1/9 13/1/13 
f 5/1/5 1/1/1 16/1/16 13/1/13 
f 16/1/16 1/1/1 4/1/4 17/1/17 
f 11/2/11 10/1/10 16/1/16 17/1/17 
f 18/1/18 12/3/12 11/2/11 17/1/17 
f 18/1/18 17/1/17 4/1/4 3/1/3 
f 18/1/18 15/1/15 7/1/7 12/3/12 
f 3/1/3 2/1/2 15/1/15 18/1/18 
# 16 polygons

