# 3ds Max Wavefront OBJ Exporter v0.97b - (c)2007 guruware
# File Created: 29.01.2020 08:25:08

#
# object piedistallo_low002
#

v  1.5795 0.6227 2.4509
v  1.5624 0.4163 2.4678
v  1.8265 0.4140 2.4695
v  1.8262 0.6193 2.4526
v  2.0855 0.4176 1.9480
v  2.0685 0.6187 1.9637
v  2.0694 0.6160 2.2369
v  2.0863 0.4128 2.2363
v  1.5599 0.4141 1.9434
v  1.5773 0.6181 1.9595
v  1.8260 0.6207 1.9586
v  1.8197 0.4157 1.9420
v  1.9989 1.0982 2.4120
v  1.8118 1.0986 2.4110
v  1.8187 1.0642 2.4149
v  2.0373 1.0241 2.4204
v  2.0296 1.0980 2.0275
v  2.0289 1.0999 2.2322
v  2.0354 1.0225 2.2380
v  2.0344 1.0211 1.9951
v  1.6143 1.0708 1.9962
v  1.8372 1.0738 1.9954
v  1.8386 1.0307 1.9917
v  1.6121 1.0261 1.9917
v  1.6194 1.0999 2.0001
v  1.8388 1.0996 2.0000
v  2.0299 1.0986 2.3817
v  2.0309 1.0685 1.9955
v  2.0853 0.4141 2.4692
v  2.0693 0.6174 2.4529
v  1.6248 1.0990 2.4101
v  1.6192 1.0673 2.4136
v  1.8218 1.0988 2.2327
v  1.6194 1.0963 2.2266
v  2.0025 1.1004 2.2306
v  1.6137 1.0355 2.4170
v  1.8255 1.0298 2.4187
v  1.6154 1.0691 2.2277
v  1.6102 1.0340 2.2280
v  1.5761 0.6216 2.2077
v  1.5590 0.4154 2.1975
v  1.8071 0.0056 1.9088
v  2.1196 0.0153 1.9165
v  2.1203 0.0063 2.2351
v  1.8148 0.0054 2.2072
v  2.1174 0.0075 2.5017
v  1.8272 0.0036 2.5034
v  1.5281 0.0035 2.5017
v  1.5249 0.0030 2.1772
v  1.5251 0.0060 1.9112
v  1.5453 0.2099 2.4847
v  1.8269 0.2088 2.4864
v  1.8258 0.8245 2.4357
v  1.5966 0.8291 2.4340
v  2.0515 0.8199 1.9794
v  2.0524 0.8192 2.2374
v  2.1033 0.2095 2.2357
v  2.1026 0.2164 1.9322
v  1.5947 0.8221 1.9756
v  1.8323 0.8257 1.9751
v  1.8134 0.2106 1.9254
v  1.5425 0.2100 1.9273
v  2.0533 0.8207 2.4367
v  2.1014 0.2108 2.4854
v  1.5932 0.8278 2.2178
v  1.5420 0.2092 2.1874
# 66 vertices

vn -0.6996 0.1158 0.7051
vn -0.7001 0.1158 0.7046
vn -0.0022 0.0822 0.9966
vn -0.0033 0.0822 0.9966
vn 0.7095 0.1144 -0.6954
vn 0.7091 0.1144 -0.6958
vn 0.9965 0.0832 -0.0013
vn 0.9965 0.0832 0.0012
vn -0.7030 0.1154 -0.7018
vn -0.7017 0.1154 -0.7030
vn 0.0085 0.0803 -0.9967
vn 0.0079 0.0803 -0.9967
vn 0.1911 0.7158 0.6716
vn -0.0019 0.7446 0.6675
vn -0.0050 0.1102 0.9939
vn 0.6988 0.1585 0.6975
vn 0.6336 0.7303 -0.2552
vn 0.6810 0.7323 -0.0008
vn 0.9965 0.0835 -0.0078
vn 0.7149 0.0865 -0.6939
vn -0.7120 0.1551 -0.6848
vn -0.0006 0.1307 -0.9914
vn 0.0100 0.0824 -0.9965
vn -0.6940 0.1103 -0.7114
vn -0.5244 0.6617 -0.5358
vn 0.0093 0.7678 -0.6406
vn 0.6701 0.7144 0.2014
vn 0.6238 0.3156 -0.7150
vn 0.7018 0.1115 0.7036
vn 0.7025 0.1115 0.7029
vn -0.5156 0.6566 0.5505
vn -0.6841 0.1964 0.7025
vn -0.0107 0.9999 0.0015
vn -0.6642 0.7475 0.0103
vn 0.0051 1.0000 0.0002
vn -0.7002 0.1543 0.6971
vn -0.0054 0.0962 0.9953
vn -0.9892 0.1461 0.0139
vn -0.9935 0.1137 0.0030
vn -0.9966 0.0823 0.0037
vn -0.9966 0.0823 0.0041
vn 0.0154 -0.6777 -0.7352
vn 0.6135 -0.5161 -0.5978
vn 0.7350 -0.6781 -0.0042
vn 0.0060 -1.0000 -0.0037
vn 0.5985 -0.5307 0.6002
vn 0.0048 -0.6801 0.7331
vn -0.5963 -0.5347 0.5988
vn -0.7323 -0.6810 -0.0003
vn -0.6018 -0.5306 -0.5969
vn -0.7005 0.1158 0.7042
vn -0.0013 0.0822 0.9966
vn -0.0045 0.0822 0.9966
vn -0.6990 0.1158 0.7057
vn 0.7087 0.1144 -0.6962
vn 0.9965 0.0832 -0.0043
vn 0.9965 0.0832 0.0034
vn 0.7098 0.1144 -0.6950
vn -0.7004 0.1154 -0.7044
vn 0.0091 0.0803 -0.9967
vn 0.0074 0.0804 -0.9967
vn -0.7042 0.1154 -0.7006
vn 0.7034 0.1115 0.7020
vn 0.7012 0.1115 0.7042
vn -0.9966 0.0823 0.0035
vn -0.9966 0.0822 0.0046
# 66 vertex normals

vt 0.0300 0.3114 0.0000
vt 0.0202 0.2099 0.0000
vt 0.1497 0.2069 0.0000
vt 0.1510 0.3079 0.0000
vt 0.3565 0.9948 0.0000
vt 0.2572 0.9954 0.0000
vt 0.2475 0.8618 0.0000
vt 0.3472 0.8537 0.0000
vt 0.5675 0.2015 0.0000
vt 0.5589 0.3019 0.0000
vt 0.4370 0.3032 0.0000
vt 0.4400 0.2023 0.0000
vt 0.2390 0.5424 0.0000
vt 0.1473 0.5440 0.0000
vt 0.1504 0.5269 0.0000
vt 0.2573 0.5056 0.0000
vt 0.0196 0.9838 0.0000
vt 0.0103 0.8838 0.0000
vt 0.0481 0.8778 0.0000
vt 0.0586 0.9965 0.0000
vt 0.5408 0.5247 0.0000
vt 0.4315 0.5261 0.0000
vt 0.4308 0.5049 0.0000
vt 0.5419 0.5027 0.0000
vt 0.5383 0.5391 0.0000
vt 0.4307 0.5390 0.0000
vt 0.9076 0.6369 0.0000
vt 0.8864 0.6367 0.0000
vt 0.8970 0.5969 0.0000
vt 0.0354 0.9982 0.0000
vt 0.5659 0.9288 0.0000
vt 0.5676 0.9075 0.0000
vt 0.6604 0.9300 0.0000
vt 0.2766 0.2052 0.0000
vt 0.2702 0.3053 0.0000
vt 0.0555 0.5455 0.0000
vt 0.0526 0.5299 0.0000
vt 0.1065 0.5588 0.0000
vt 0.1150 0.6460 0.0000
vt 0.0160 0.6532 0.0000
vt 0.0148 0.5632 0.0000
vt 0.1981 0.5545 0.0000
vt 0.2036 0.6433 0.0000
vt 0.2165 0.6420 0.0000
vt 0.2211 0.7423 0.0000
vt 0.0497 0.5142 0.0000
vt 0.1535 0.5099 0.0000
vt 0.1281 0.7597 0.0000
vt 0.0206 0.7642 0.0000
vt 0.8629 0.5296 0.0000
vt 0.8624 0.5431 0.0000
vt 0.7513 0.5450 0.0000
vt 0.7493 0.5305 0.0000
vt 0.7471 0.5085 0.0000
vt 0.8630 0.5123 0.0000
vt 0.9541 0.5288 0.0000
vt 0.9524 0.5445 0.0000
vt 0.9558 0.5130 0.0000
vt 0.9806 0.2083 0.0000
vt 0.9723 0.3099 0.0000
vt 0.8530 0.3093 0.0000
vt 0.8480 0.2078 0.0000
vt 0.3365 0.5235 0.0000
vt 0.3347 0.5003 0.0000
vt 0.3180 0.3024 0.0000
vt 0.3096 0.2035 0.0000
vt 0.7313 0.3076 0.0000
vt 0.7234 0.2072 0.0000
vt 0.2139 0.5687 0.0000
vt 0.0049 0.8107 0.0000
vt 0.0399 0.7887 0.0000
vt 0.2380 0.7562 0.0000
vt 0.3370 0.7400 0.0000
vt 0.8368 0.9914 0.0000
vt 0.6835 0.9877 0.0000
vt 0.6832 0.8314 0.0000
vt 0.8330 0.8451 0.0000
vt 0.6846 0.7007 0.0000
vt 0.8270 0.6998 0.0000
vt 0.9736 0.7007 0.0000
vt 0.9752 0.8598 0.0000
vt 0.9751 0.9903 0.0000
vt 0.0103 0.1085 0.0000
vt 0.0005 0.0070 0.0000
vt 0.1472 0.0049 0.0000
vt 0.1484 0.1059 0.0000
vt 0.1522 0.4089 0.0000
vt 0.0398 0.4128 0.0000
vt 0.1579 0.9959 0.0000
vt 0.1478 0.8698 0.0000
vt 0.4468 0.8457 0.0000
vt 0.5465 0.8377 0.0000
vt 0.5551 0.9938 0.0000
vt 0.4558 0.9943 0.0000
vt 0.5504 0.4023 0.0000
vt 0.4339 0.4040 0.0000
vt 0.4431 0.1014 0.0000
vt 0.4462 0.0005 0.0000
vt 0.5845 0.0008 0.0000
vt 0.5760 0.1012 0.0000
vt 0.2638 0.4054 0.0000
vt 0.2895 0.0049 0.0000
vt 0.2831 0.1050 0.0000
vt 0.9640 0.4114 0.0000
vt 0.8580 0.4108 0.0000
vt 0.8430 0.1064 0.0000
vt 0.8380 0.0049 0.0000
vt 0.9970 0.0051 0.0000
vt 0.9888 0.1067 0.0000
vt 0.3013 0.1045 0.0000
vt 0.2929 0.0056 0.0000
vt 0.3264 0.4014 0.0000
vt 0.7154 0.1068 0.0000
vt 0.7075 0.0064 0.0000
vt 0.7392 0.4080 0.0000
vt 0.4360 0.7237 0.0000
vt 0.5350 0.7075 0.0000
vt 0.1389 0.7725 0.0000
# 118 texture coords

o piedistallo_low002
g piedistallo_low002
s 16
f 1/1/1 2/2/2 3/3/3 4/4/4 
s 1
f 5/5/5 6/6/6 7/7/7 8/8/8 
s 4
f 9/9/9 10/10/10 11/11/11 12/12/12 
s 16
f 13/13/13 14/14/14 15/15/15 16/16/16 
s 1
f 17/17/17 18/18/18 19/19/19 20/20/20 
s 4
f 21/21/21 22/22/22 23/23/23 24/24/24 
f 25/25/25 26/26/26 22/22/22 21/21/21 
s 2
f 27/27/27 13/28/13 16/29/16 
s 1
f 28/30/28 17/17/17 20/20/20 
s 2
f 17/31/17 28/32/28 26/33/26 
s 16
f 29/34/29 30/35/30 4/4/4 3/3/3 
f 14/14/14 31/36/31 32/37/32 15/15/15 
s 8
f 14/38/14 33/39/33 34/40/34 31/41/31 
f 13/42/13 35/43/35 33/39/33 14/38/14 
f 18/44/18 17/45/17 35/43/35 
s 16
f 32/37/32 36/46/36 37/47/37 15/15/15 
f 15/15/15 37/47/37 16/16/16 
s 8
f 35/43/35 17/45/17 26/48/26 33/39/33 
f 33/39/33 26/48/26 25/49/25 34/40/34 
s 1
f 38/50/38 34/51/34 25/52/25 21/53/21 
f 38/50/38 21/53/21 24/54/24 39/55/39 
f 34/51/34 38/50/38 32/56/32 31/57/31 
f 36/58/36 32/56/32 38/50/38 39/55/39 
f 2/59/2 1/60/1 40/61/40 41/62/41 
s 4
f 26/26/26 28/63/28 22/22/22 
f 22/22/22 28/63/28 20/64/20 23/23/23 
f 6/65/6 5/66/5 12/12/12 11/11/11 
s 1
f 10/67/10 9/68/9 41/62/41 40/61/40 
s 8
f 35/43/35 13/42/13 27/69/27 18/44/18 
s 1
f 18/18/18 27/70/27 16/71/16 19/19/19 
f 30/72/30 29/73/29 8/8/8 7/7/7 
s 8
f 42/74/42 43/75/43 44/76/44 45/77/45 
f 44/76/44 46/78/46 47/79/47 45/77/45 
f 47/79/47 48/80/48 49/81/49 45/77/45 
f 45/77/45 49/81/49 50/82/50 42/74/42 
s 16
f 51/83/51 48/84/48 47/85/47 52/86/52 
f 2/2/2 51/83/51 52/86/52 3/3/3 
f 53/87/53 37/47/37 36/46/36 54/88/54 
f 4/4/4 53/87/53 54/88/54 1/1/1 
s 1
f 55/89/55 20/20/20 19/19/19 56/90/56 
f 6/6/6 55/89/55 56/90/56 7/7/7 
f 57/91/57 44/92/44 43/93/43 58/94/58 
f 8/8/8 57/91/57 58/94/58 5/5/5 
s 4
f 59/95/59 24/24/24 23/23/23 60/96/60 
f 10/10/10 59/95/59 60/96/60 11/11/11 
f 61/97/61 42/98/42 50/99/50 62/100/62 
f 12/12/12 61/97/61 62/100/62 9/9/9 
s 16
f 63/101/63 16/16/16 37/47/37 53/87/53 
f 30/35/30 63/101/63 53/87/53 4/4/4 
f 52/86/52 47/85/47 46/102/46 64/103/64 
f 3/3/3 52/86/52 64/103/64 29/34/29 
s 1
f 54/104/54 36/58/36 39/55/39 65/105/65 
f 1/60/1 54/104/54 65/105/65 40/61/40 
f 66/106/66 49/107/49 48/108/48 51/109/51 
f 41/62/41 66/106/66 51/109/51 2/59/2 
s 4
f 58/110/58 43/111/43 42/98/42 61/97/61 
f 5/66/5 58/110/58 61/97/61 12/12/12 
f 60/96/60 23/23/23 20/64/20 55/112/55 
f 11/11/11 60/96/60 55/112/55 6/65/6 
s 1
f 62/113/62 50/114/50 49/107/49 66/106/66 
f 9/68/9 62/113/62 66/106/66 41/62/41 
f 65/105/65 39/55/39 24/54/24 59/115/59 
f 40/61/40 65/105/65 59/115/59 10/67/10 
f 64/116/64 46/117/46 44/92/44 57/91/57 
f 29/73/29 64/116/64 57/91/57 8/8/8 
f 56/90/56 19/19/19 16/71/16 63/118/63 
f 7/7/7 56/90/56 63/118/63 30/72/30 
# 61 polygons - 6 triangles

