# 3ds Max Wavefront OBJ Exporter v0.97b - (c)2007 guruware
# File Created: 21.02.2020 01:19:20

mtllib Roccia_1.mtl

#
# object Roccia_LP
#

v  -0.1735 0.3034 -0.6865
v  -0.1524 -0.0955 -0.6715
v  -0.0237 -0.0810 -0.7073
v  -0.0494 0.3270 -0.7082
v  -0.0876 0.9957 -0.7765
v  -0.1838 0.9868 -0.7436
v  -0.2314 0.3169 -1.0877
v  -0.2510 -0.0904 -1.1488
v  -0.2410 -0.1002 -0.7233
v  -0.2398 0.2887 -0.6895
v  -0.2045 0.3298 -1.1681
v  -0.2091 -0.0941 -1.1922
v  -0.0239 -0.0909 -0.9264
v  -0.0127 0.3397 -0.9595
v  -0.0032 1.0255 -1.0014
v  -0.1001 1.0231 -1.1906
v  -0.1823 1.0168 -1.0609
v  -0.2243 1.0007 -0.8319
v  -0.1748 1.0648 -1.0410
v  -0.1033 1.1002 -1.1654
v  -0.2033 1.0380 -0.8411
v  -0.1621 1.0234 -0.7816
v  -0.0972 1.0386 -0.8253
v  -0.0265 1.0711 -0.9804
v  -0.0111 1.0234 -1.2444
v  -0.0307 1.0844 -1.1886
v  -0.1806 1.3014 -0.8878
v  -0.1585 1.2934 -1.0310
v  -0.1507 1.3008 -0.8272
v  -0.1056 1.2974 -0.8609
v  -0.0568 1.3087 -0.9766
v  -0.1263 1.3018 -1.1297
v  -0.0713 1.3114 -1.2022
v  -0.0528 1.3109 -1.0906
v  -0.1035 1.3073 -0.9966
v  -0.1331 1.3064 -0.8980
v  -0.0794 1.3238 -1.0948
v  -0.0381 0.3043 -1.2269
v  -0.0335 -0.0847 -1.2073
# 39 vertices

vn 0.0500 0.0626 0.9968
vn -0.1380 0.0301 0.9900
vn 0.7948 0.0515 0.6047
vn 0.6993 0.0815 0.7101
vn 0.5912 0.4175 0.6901
vn -0.3787 0.3751 0.8461
vn -0.9850 0.0731 -0.1566
vn -0.9127 0.1032 -0.3954
vn -0.8743 -0.0393 0.4837
vn -0.7040 0.0328 0.7095
vn -0.7292 0.0700 -0.6807
vn -0.4257 0.0558 -0.9031
vn 0.9995 -0.0274 -0.0167
vn 0.9995 -0.0179 0.0260
vn 0.9682 0.2097 0.1366
vn -0.6751 0.1431 -0.7237
vn -0.9129 0.1833 -0.3647
vn -0.9502 0.2794 0.1377
vn -0.9473 0.1709 -0.2709
vn -0.6166 0.1372 -0.7752
vn -0.8960 0.3476 0.2764
vn -0.0509 0.5714 0.8191
vn 0.6448 0.4457 0.6210
vn 0.9398 0.2263 0.2560
vn 0.4494 0.2990 -0.8418
vn 0.6662 0.4496 -0.5949
vn -0.7481 0.6585 0.0819
vn -0.7645 0.6223 -0.1684
vn -0.1726 0.6163 0.7683
vn 0.6247 0.6132 0.4834
vn 0.6574 0.7300 0.1869
vn -0.7795 0.5226 -0.3455
vn 0.1141 0.5233 -0.8445
vn 0.8245 0.5651 -0.0288
vn -0.1554 0.9870 0.0415
vn 0.0472 0.9979 0.0451
vn 0.0262 0.9989 0.0399
vn 0.5249 -0.0387 -0.8503
vn 0.6713 -0.0294 -0.7406
# 39 vertex normals

vt 0.0000 1.0000 0.0000
vt 0.0000 0.0000 0.0000
vt 1.0000 0.0000 0.0000
vt 1.0000 1.0000 0.0000
vt 1.0000 1.0000 1.0000
# 5 texture coords

o Roccia_LP
g Roccia_LP
usemtl wire_135059008
s 2
f 1/1/1 2/2/2 3/3/3 4/4/4 
f 5/5/5 6/5/6 1/1/1 4/4/4 
f 7/5/7 8/5/8 9/5/9 10/5/10 
f 11/5/11 12/5/12 8/5/8 7/5/7 
f 13/5/13 14/5/14 4/4/4 3/3/3 
f 15/5/15 5/5/5 4/4/4 14/5/14 
f 16/5/16 11/5/11 7/5/7 17/5/17 
f 10/5/10 1/1/1 6/5/6 18/5/18 
f 18/5/18 17/5/17 7/5/7 10/5/10 
s 1
f 16/5/16 17/5/17 19/5/19 20/5/20 
f 17/5/17 18/5/18 21/5/21 19/5/19 
f 18/5/18 6/5/6 22/5/22 21/5/21 
f 6/5/6 5/5/5 23/5/23 22/5/22 
f 5/5/5 15/5/15 24/5/24 23/5/23 
f 15/5/15 25/5/25 26/5/26 24/5/24 
f 25/5/25 16/5/16 20/5/20 26/5/26 
s 2
f 19/5/19 21/5/21 27/5/27 28/5/28 
f 21/5/21 22/5/22 29/5/29 27/5/27 
f 22/5/22 23/5/23 30/5/30 29/5/29 
f 23/5/23 24/5/24 31/5/31 30/5/30 
f 26/5/26 20/5/20 32/5/32 33/5/33 
f 20/5/20 19/5/19 28/5/28 32/5/32 
f 31/5/31 24/5/24 26/5/26 34/5/34 
s off
f 26/5/26 33/5/33 34/5/34 
s 1
f 35/5/35 36/5/36 30/5/30 31/5/31 
f 35/5/35 31/5/31 34/5/34 37/5/37 
f 29/5/29 30/5/30 36/5/36 
f 27/5/27 29/5/29 36/5/36 
f 28/5/28 27/5/27 36/5/36 35/5/35 
f 35/5/35 37/5/37 32/5/32 28/5/28 
f 33/5/33 32/5/32 37/5/37 
f 37/5/37 34/5/34 33/5/33 
s 2
f 38/5/38 11/5/11 16/5/16 25/5/25 
f 38/5/38 25/5/25 15/5/15 14/5/14 
f 38/5/38 14/5/14 13/5/13 39/5/39 
f 38/5/38 39/5/39 12/5/12 11/5/11 
f 2/2/2 1/1/1 10/5/10 9/5/9 
# 32 polygons - 5 triangles

