# 3ds Max Wavefront OBJ Exporter v0.97b - (c)2007 guruware
# File Created: 21.02.2020 01:20:04

mtllib roccia2.mtl

#
# object LP_Roccia2
#

v  0.0996 0.2238 -0.0081
v  0.0266 -0.0444 -0.0010
v  0.1882 -0.0544 -0.0200
v  0.1912 0.1881 -0.0252
v  0.1884 -0.0510 -0.4173
v  0.1924 0.1741 -0.4089
v  -0.0537 0.1470 -0.0025
v  -0.0622 -0.0520 -0.0024
v  -0.1469 0.0447 -0.0287
v  -0.1514 -0.0544 -0.0125
v  -0.0872 0.2346 -0.1399
v  -0.1474 0.2230 -0.1862
v  0.1064 0.2409 -0.0589
v  -0.1424 0.2292 -0.3025
v  -0.1375 0.0809 -0.4058
v  -0.0531 0.2291 -0.3423
v  0.1801 0.2132 -0.3805
v  0.1776 0.2206 -0.0572
v  0.1195 0.2348 -0.3850
v  0.1226 0.2244 -0.4164
v  0.1247 -0.0477 -0.4217
v  -0.1473 -0.0407 -0.4182
# 22 vertices

vn 0.0092 0.6588 0.7523
vn 0.0373 0.0165 0.9992
vn 0.7508 0.0048 0.6605
vn 0.7490 0.2807 0.6002
vn 0.7325 0.0124 -0.6806
vn 0.7535 0.2036 -0.6251
vn -0.3516 0.3804 0.8554
vn -0.0673 0.0033 0.9977
vn -0.8384 0.1907 0.5106
vn -0.7160 0.1444 0.6830
vn -0.2953 0.9081 0.2971
vn -0.7851 0.5955 0.1701
vn 0.0862 0.9809 0.1744
vn -0.6579 0.7069 -0.2597
vn -0.7033 0.2128 -0.6783
vn -0.1798 0.8440 -0.5054
vn 0.6475 0.6968 -0.3086
vn 0.5810 0.7704 0.2624
vn 0.1266 0.9769 -0.1719
vn 0.0828 0.6864 -0.7225
vn 0.0302 0.0197 -0.9994
vn -0.6999 0.1276 -0.7028
# 22 vertex normals

vt 0.0000 1.0000 0.0000
vt 0.0000 0.0000 0.0000
vt 1.0000 0.0000 0.0000
vt 1.0000 1.0000 0.0000
vt 1.0000 1.0000 1.0000
# 5 texture coords

o LP_Roccia2
g LP_Roccia2
usemtl wire_166229229
s 1
f 1/1/1 2/2/2 3/3/3 4/4/4 
s off
f 5/5/5 6/5/6 4/4/4 3/3/3 
f 7/5/7 8/5/8 2/2/2 1/1/1 
f 9/5/9 10/5/10 8/5/8 7/5/7 
f 11/5/11 12/5/12 9/5/9 7/5/7 
f 11/5/11 7/5/7 1/1/1 13/5/13 
f 14/5/14 15/5/15 9/5/9 12/5/12 
f 14/5/14 12/5/12 11/5/11 16/5/16 
f 17/5/17 18/5/18 4/4/4 6/5/6 
f 1/1/1 4/4/4 18/5/18 13/5/13 
f 13/5/13 18/5/18 17/5/17 19/5/19 
f 19/5/19 17/5/17 6/5/6 20/5/20 
f 20/5/20 6/5/6 5/5/5 21/5/21 
f 22/5/22 10/5/10 9/5/9 15/5/15 
f 15/5/15 20/5/20 21/5/21 22/5/22 
f 11/5/11 13/5/13 19/5/19 16/5/16 
f 15/5/15 14/5/14 16/5/16 
f 15/5/15 16/5/16 19/5/19 20/5/20 
# 17 polygons - 1 triangles

